<?xml version="1.0" encoding="utf-8"?>
<!-- Generator: Adobe Illustrator 22.0.0, SVG Export Plug-In . SVG Version: 6.00 Build 0)  -->
<svg version="1.1"
	 id="svg-logo" inkscape:version="0.91 r13725" sodipodi:docname="Amazon II.svg" xmlns:cc="http://creativecommons.org/ns#" xmlns:dc="http://purl.org/dc/elements/1.1/" xmlns:inkscape="http://www.inkscape.org/namespaces/inkscape" xmlns:rdf="http://www.w3.org/1999/02/22-rdf-syntax-ns#" xmlns:sodipodi="http://sodipodi.sourceforge.net/DTD/sodipodi-0.dtd" xmlns:svg="http://www.w3.org/2000/svg"
	 xmlns="http://www.w3.org/2000/svg" xmlns:xlink="http://www.w3.org/1999/xlink" x="0px" y="0px" viewBox="0 0 1000 301.4"
	 style="enable-background:new 0 0 1000 301.4;" xml:space="preserve">
<style type="text/css">
	.st0{fill:#FF9900;}
</style>
<sodipodi:namedview  bordercolor="#666666" borderopacity="1" gridtolerance="10" guidetolerance="10" id="namedview19" inkscape:current-layer="svg1936" inkscape:cx="426.12453" inkscape:cy="94.816171" inkscape:pageopacity="0" inkscape:pageshadow="2" inkscape:window-height="705" inkscape:window-maximized="1" inkscape:window-width="1366" inkscape:window-x="-8" inkscape:window-y="-8" inkscape:zoom="0.72245926" objecttolerance="10" pagecolor="#ffffff" showgrid="false">
	</sodipodi:namedview>
<path id="path8" inkscape:connector-curvature="0" class="st0" d="M619,233.6c-56.5,41.6-138.4,63.9-208.9,63.9
	c-98.9,0-187.9-36.6-255.2-97.4c-5.3-4.8-0.6-11.3,5.8-7.6c72.7,42.3,162.5,67.7,255.3,67.7c62.6,0,131.5-13,194.8-39.8
	C620.4,216.3,628.4,226.7,619,233.6"/>
<path id="path10" inkscape:connector-curvature="0" class="st0" d="M642.5,206.7c-7.2-9.2-47.7-4.4-65.9-2.2
	c-5.5,0.7-6.4-4.1-1.4-7.6c32.3-22.7,85.3-16.2,91.5-8.5s-1.6,60.8-32,86.1c-4.7,3.9-9.1,1.8-7-3.3
	C634.5,254.1,649.8,216,642.5,206.7"/>
<path id="path12" inkscape:connector-curvature="0" d="M577.9,36.5V14.4c0-3.3,2.5-5.6,5.6-5.6h98.9c3.2,0,5.7,2.3,5.7,5.6v18.9
	c0,3.2-2.7,7.3-7.4,13.9l-51.3,73.2c19-0.5,39.1,2.4,56.4,12.1c3.9,2.2,5,5.4,5.2,8.6v23.6c0,3.2-3.6,7-7.3,5
	c-30.4-16-70.8-17.7-104.5,0.2c-3.4,1.9-7-1.9-7-5.1v-22.4c0-3.6,0-9.7,3.6-15.2L635.3,42h-51.7C580.4,42,577.9,39.8,577.9,36.5"/>
<path id="path14" inkscape:connector-curvature="0" d="M217.1,174.3H187c-2.9-0.2-5.2-2.4-5.4-5.1V14.7c0-3.1,2.6-5.5,5.8-5.5h28.1
	c2.9,0.1,5.2,2.4,5.5,5.2v20.2h0.6C228.9,15.1,242.7,6,261.2,6c18.8,0,30.6,9.1,39.1,28.6C307.4,15,324,5.9,341.7,5.9
	c12.6,0,26.4,5.2,34.8,16.9c9.5,13,7.6,31.9,7.6,48.4v97.5c0,3.1-2.6,5.6-5.8,5.6h-30c-3-0.2-5.4-2.6-5.4-5.6V86.9
	c0-6.5,0.6-22.8-0.8-28.9c-2.2-10.4-9-13.3-17.7-13.3c-7.3,0-14.9,4.9-18,12.7s-2.8,20.8-2.8,29.6v81.9c0,3.1-2.6,5.6-5.8,5.6h-30
	c-3-0.2-5.4-2.6-5.4-5.6V87c0-17.2,2.8-42.6-18.5-42.6c-21.6,0-20.8,24.7-20.8,42.6v81.9C222.8,171.8,220.3,174.3,217.1,174.3"/>
<path id="path16" inkscape:connector-curvature="0" d="M773.2,5.9C817.9,5.9,842,44.3,842,93c0,47.1-26.7,84.5-68.8,84.5
	c-43.8,0-67.7-38.3-67.7-86.1C705.5,43.3,729.7,5.9,773.2,5.9 M773.5,37.5c-22.2,0-23.6,30.2-23.6,49.1s-0.3,59.2,23.3,59.2
	c23.3,0,24.4-32.5,24.4-52.3c0-13-0.6-28.6-4.5-41C789.8,41.7,783,37.5,773.5,37.5"/>
<path id="path18" inkscape:connector-curvature="0" d="M899.9,174.3h-30c-3-0.2-5.4-2.6-5.4-5.6V14.2c0.3-2.8,2.8-5,5.8-5h27.9
	c2.6,0.1,4.8,1.9,5.4,4.3v23.6h0.6c8.4-21.1,20.2-31.2,41-31.2c13.5,0,26.7,4.9,35.1,18.2c7.9,12.4,7.9,33.1,7.9,48.1v97.2
	c-0.3,2.7-2.8,4.9-5.8,4.9h-30.2c-2.8-0.2-5-2.2-5.3-4.9V85.5c0-16.9,1.9-41.6-18.8-41.6c-7.3,0-14.1,4.9-17.4,12.4
	c-4.2,9.4-4.8,18.8-4.8,29.2v83.2C905.8,171.8,903.2,174.3,899.9,174.3"/>
<path d="M552.6,146c-5.5-7.6-11.3-13.8-11.3-27.9V71.2c0-19.8,1.4-38.1-13.2-51.8c-11.6-11.1-30.7-15-45.3-15
	c-28.6,0-60.6,10.7-67.3,46c-0.7,3.8,2,5.8,4.5,6.3l29.2,3.1c2.8-0.1,4.7-2.8,5.2-5.5c2.5-12.2,12.7-18.1,24.2-18.1
	c6.2,0,13.2,2.3,16.9,7.8c4.2,6.2,3.7,14.6,3.7,21.8v3.9c-17.4,2-40.2,3.3-56.6,10.5c-18.9,8.1-32.1,24.8-32.1,49.2
	c0,31.3,19.7,46.9,45,46.9c21.4,0,33.1-5,49.6-21.9c5.5,7.9,7.3,11.8,17.3,20.1c2.2,1.2,5.1,1.1,7.1-0.7l0,0l0,0l0,0v0.1
	c6-5.3,16.9-14.9,23.1-20C554.9,152,554.5,148.7,552.6,146z M493.4,132.4c-4.8,8.5-12.4,13.7-20.8,13.7c-11.6,0-18.3-8.8-18.3-21.8
	c0-25.6,23-30.3,44.8-30.3v6.5l0,0C499,112.3,499.3,122,493.4,132.4z"/>
<path d="M158.1,146c-5.5-7.6-11.3-13.8-11.3-27.9V71.2c0-19.8,1.4-38.1-13.2-51.8c-11.6-11.1-30.7-15-45.3-15
	c-28.6,0-60.6,10.7-67.3,46c-0.7,3.8,2,5.8,4.5,6.3l29.2,3.1c2.7-0.1,4.7-2.8,5.2-5.5c2.4-12,12.6-17.9,24.1-17.9
	c6.2,0,13.2,2.3,16.9,7.8c4.2,6.2,3.6,14.6,3.6,21.8v3.9c-17.4,2-40.2,3.3-56.6,10.5c-18.8,8.1-32.1,24.8-32.1,49.2
	c0,31.3,19.7,46.9,45,46.9c21.4,0,33.1-5,49.6-21.9c5.5,7.9,7.3,11.8,17.3,20.1c2.2,1.2,5.1,1.1,7.1-0.7l0,0l0.1,0.1
	c6-5.3,16.9-14.9,23.1-20C160.5,152,160,148.7,158.1,146z M98.9,132.4c-4.8,8.5-12.4,13.7-20.8,13.7c-11.6,0-18.3-8.8-18.3-21.8
	c0-25.6,23-30.3,44.7-30.3v6.5C104.5,112.3,104.8,122,98.9,132.4z"/>
</svg>
