<?xml version="1.0" encoding="utf-8"?>
<!-- Generator: Adobe Illustrator 22.0.0, SVG Export Plug-In . SVG Version: 6.00 Build 0)  -->
<svg version="1.1" id="Layer_1" xmlns="http://www.w3.org/2000/svg" xmlns:xlink="http://www.w3.org/1999/xlink" x="0px" y="0px"
	 viewBox="0 0 24.1 24.1" style="enable-background:new 0 0 24.1 24.1;" xml:space="preserve">
<style type="text/css">
	.st0{fill:none;stroke:#879596;stroke-width:1.6;stroke-miterlimit:10;}
</style>
<title>Grid</title>
<path class="st0" d="M3.2,2.2h6.4c0.5,0,0.9,0.4,0.9,0.9v6.4c0,0.5-0.4,0.9-0.9,0.9H3.2c-0.5,0-0.9-0.4-0.9-0.9V3.2
	C2.2,2.7,2.7,2.2,3.2,2.2z"/>
<path class="st0" d="M14.5,2.2h6.4c0.5,0,0.9,0.4,0.9,0.9v6.4c0,0.5-0.4,0.9-0.9,0.9h-6.4c-0.5,0-0.9-0.4-0.9-0.9V3.2
	C13.6,2.7,14,2.2,14.5,2.2z"/>
<path class="st0" d="M3.2,13.6h6.4c0.5,0,0.9,0.4,0.9,0.9v6.4c0,0.5-0.4,0.9-0.9,0.9H3.2c-0.5,0-0.9-0.4-0.9-0.9v-6.4
	C2.2,14,2.7,13.6,3.2,13.6z"/>
<path class="st0" d="M14.5,13.6h6.4c0.5,0,0.9,0.4,0.9,0.9v6.4c0,0.5-0.4,0.9-0.9,0.9h-6.4c-0.5,0-0.9-0.4-0.9-0.9v-6.4
	C13.6,14,14,13.6,14.5,13.6z"/>
</svg>
