<?xml version="1.0" encoding="utf-8"?>
<!-- Generator: Adobe Illustrator 22.0.0, SVG Export Plug-In . SVG Version: 6.00 Build 0)  -->
<svg version="1.1" id="Layer_1" xmlns="http://www.w3.org/2000/svg" xmlns:xlink="http://www.w3.org/1999/xlink" x="0px" y="0px"
	 viewBox="0 0 28.3 28.3" style="enable-background:new 0 0 28.3 28.3;" xml:space="preserve">
<style type="text/css">
	.st0{fill:#FFFFFF;}
</style>
<title>magnifier-outline</title>
<g>
	<path class="st0" d="M14.6,0.6c-0.1,0-0.2,0-0.2,0c0,0,0,0-0.1,0c0,0-0.1,0-0.1,0C6.7,0.6,0.6,6.7,0.6,14.1
		c0,7.5,6.1,13.6,13.6,13.6s13.6-6.1,13.6-13.6C27.7,6.8,21.9,0.8,14.6,0.6z M14.4,25.7C14.4,25.7,14.3,25.7,14.4,25.7
		C14.3,25.7,14.3,25.7,14.4,25.7L14.4,25.7z M13.2,25.5c-1.4-0.6-2.6-2.3-3.4-4.5c1.1-0.3,2.2-0.4,3.4-0.5V25.5z M13.2,18.5
		c-1.4,0.1-2.7,0.3-4,0.6c-0.3-1.2-0.5-2.5-0.5-3.9h4.5V18.5z M8.7,13.2c0.1-1.5,0.3-3,0.6-4.3c1.2,0.3,2.5,0.5,3.9,0.6v3.8H8.7z
		 M13.2,7.4C12,7.4,10.9,7.2,9.9,7c0.8-2.1,2-3.6,3.3-4.1V7.4z M15.1,9.4c1.5-0.1,2.9-0.2,4.2-0.6c0.3,1.3,0.6,2.8,0.6,4.3h-4.9V9.4
		z M15.1,7.4V2.7c1.4,0.4,2.7,2,3.6,4.3C17.6,7.2,16.4,7.4,15.1,7.4z M19.3,3.8c1,0.5,2,1.2,2.8,2c-0.5,0.2-1,0.5-1.5,0.7
		C20.3,5.4,19.8,4.5,19.3,3.8z M8,6.4C7.4,6.2,6.8,5.9,6.3,5.6c0.9-0.9,2-1.6,3.2-2.1C8.9,4.3,8.4,5.3,8,6.4z M7.4,8.3
		C7,9.8,6.8,11.4,6.7,13.2H2.6c0.2-2.3,1-4.3,2.3-6.1C5.7,7.6,6.5,7.9,7.4,8.3z M6.7,15.1c0.1,1.6,0.3,3.1,0.6,4.5
		c-0.9,0.3-1.8,0.8-2.6,1.2c-1.2-1.7-2-3.6-2.1-5.8L6.7,15.1L6.7,15.1z M7.9,21.6c0.4,1.2,1,2.3,1.6,3.2C8.2,24.2,7,23.4,6,22.4
		C6.6,22.1,7.2,21.8,7.9,21.6z M15.1,25.6v-5.2c1.3,0.1,2.6,0.2,3.7,0.5C18,23.4,16.7,25.1,15.1,25.6z M15.1,18.5v-3.3H20
		c-0.1,1.4-0.2,2.7-0.5,3.9C18.1,18.7,16.6,18.5,15.1,18.5z M22,15.1h3.7c-0.2,2.1-0.9,4-2,5.6c-0.7-0.4-1.5-0.8-2.3-1.1
		C21.7,18.3,21.9,16.7,22,15.1z M22,13.2c-0.1-1.8-0.3-3.4-0.7-4.9c0.8-0.3,1.5-0.6,2.2-1c1.3,1.7,2.1,3.7,2.2,5.9H22z M19.3,24.5
		c0.6-0.9,1.1-1.9,1.5-3c0.6,0.2,1.1,0.5,1.6,0.7C21.5,23.2,20.4,24,19.3,24.5z"/>
</g>
</svg>
