<?xml version="1.0" encoding="utf-8"?>
<!-- Generator: Adobe Illustrator 22.0.0, SVG Export Plug-In . SVG Version: 6.00 Build 0)  -->
<svg version="1.1" id="Layer_1" xmlns="http://www.w3.org/2000/svg" xmlns:xlink="http://www.w3.org/1999/xlink" x="0px" y="0px"
	 viewBox="0 0 24.1 24.1" style="enable-background:new 0 0 24.1 24.1;" xml:space="preserve">
<style type="text/css">
	.st0{fill:#879596;stroke:#869596;stroke-width:0.4;stroke-miterlimit:10;}
</style>
<path class="st0" d="M6.8,14.7l-1.6,6.5c-0.1,0.3,0,0.5,0.3,0.7c0.2,0.2,0.5,0.2,0.7,0l5.8-3.5l5.8,3.5C18,22,18.1,22,18.2,22
	s0.3,0,0.4-0.1c0.2-0.2,0.3-0.4,0.3-0.7l-1.6-6.5l5.2-4.4c0.2-0.2,0.3-0.5,0.2-0.7c-0.1-0.3-0.3-0.4-0.6-0.5l-6.8-0.6l-2.6-6.2
	C12.6,2.2,12.3,2,12,2s-0.5,0.2-0.6,0.4L8.8,8.6L2,9.2c-0.3,0-0.5,0.2-0.6,0.5s0,0.5,0.2,0.7L6.8,14.7z M9.3,9.9
	c0.2,0,0.5-0.2,0.6-0.4L12,4.4l2.2,5.1c0.1,0.2,0.3,0.4,0.6,0.4l5.6,0.5L16.1,14c-0.2,0.2-0.3,0.4-0.2,0.7l1.3,5.4l-4.8-2.9
	c-0.2-0.1-0.5-0.1-0.7,0L6.9,20l1.3-5.4c0.1-0.2,0-0.5-0.2-0.7l-4.2-3.6L9.3,9.9z"/>
</svg>
