<?xml version="1.0" encoding="utf-8"?>
<!-- Generator: Adobe Illustrator 22.0.0, SVG Export Plug-In . SVG Version: 6.00 Build 0)  -->
<svg version="1.1" id="Layer_1" xmlns="http://www.w3.org/2000/svg" xmlns:xlink="http://www.w3.org/1999/xlink" x="0px" y="0px"
	 viewBox="0 0 24.1 24.1" style="enable-background:new 0 0 24.1 24.1;" xml:space="preserve">
<style type="text/css">
	.st0{fill:none;stroke:#879596;stroke-width:1.6;stroke-miterlimit:10;}
</style>
<path class="st0" d="M21.6,14.6l-1.8-1c0.2-1,0.2-1.9,0-2.9l1.8-1c0.2-0.1,0.3-0.4,0.2-0.6c-0.5-1.5-1.2-2.8-2.2-3.9
	C19.4,5.1,19.2,5,19,5.1l-1.8,1c-0.7-0.6-1.6-1.1-2.5-1.4v-2c0-0.2-0.2-0.4-0.4-0.5c-1.5-0.3-3.1-0.3-4.5,0c-0.2,0-0.4,0.3-0.4,0.5
	v2C8.6,5,7.7,5.5,7,6.1l-1.7-1C5,5,4.8,5.1,4.6,5.2c-1,1.1-1.8,2.4-2.2,3.9c-0.1,0.2,0,0.5,0.2,0.6l1.8,1c-0.2,1-0.2,1.9,0,2.9
	l-1.8,1c-0.2,0.1-0.3,0.4-0.2,0.6c0.5,1.5,1.2,2.8,2.2,3.9c0.2,0.2,0.4,0.2,0.6,0.1l1.8-1c0.7,0.6,1.6,1.1,2.5,1.4v2
	c0,0.2,0.2,0.4,0.4,0.5c1.5,0.3,3.1,0.3,4.5,0c0.2,0,0.4-0.3,0.4-0.5v-2c0.9-0.3,1.8-0.8,2.5-1.4l1.8,1c0.2,0.1,0.5,0.1,0.6-0.1
	c1-1.1,1.8-2.4,2.2-3.9C21.9,15,21.8,14.7,21.6,14.6z M12.1,15.4c-1.8,0-3.3-1.5-3.3-3.3s1.5-3.3,3.3-3.3s3.3,1.5,3.3,3.3
	S13.9,15.4,12.1,15.4z"/>
</svg>
