<?xml version="1.0" encoding="utf-8"?>
<!-- Generator: Adobe Illustrator 22.0.0, SVG Export Plug-In . SVG Version: 6.00 Build 0)  -->
<svg version="1.1" id="Layer_1" xmlns="http://www.w3.org/2000/svg" xmlns:xlink="http://www.w3.org/1999/xlink" x="0px" y="0px"
	 viewBox="0 0 24 24" style="enable-background:new 0 0 24 24;" xml:space="preserve">
<style type="text/css">
	.st0{fill:#879596;}
</style>
<path class="st0" d="M20,15c0,0.6,0.4,1,1,1s1-0.4,1-1V7c0-0.6-0.4-1-1-1h-8c-0.6,0-1,0.4-1,1s0.4,1,1,1h5.6L13,13.6l-3.3-3.3
	c-0.4-0.4-1-0.4-1.4,0l-6,6c-0.4,0.4-0.3,1,0.1,1.4c0.4,0.3,0.9,0.3,1.3,0L9,12.4l3.3,3.3c0.4,0.4,1,0.4,1.4,0L20,9.4V15z"/>
</svg>
